<svg xmlns="http://www.w3.org/2000/svg" width="1024" height="620" viewBox="0 0 1024 620" role="img" aria-labelledby="title desc">
  <title id="title">Online study illustration</title>
  <desc id="desc">Students studying around books and an online learning screen.</desc>
  <rect width="1024" height="620" fill="#ffffff"/>
  <path d="M185 411c-63-83-17-191 86-221 94-28 158 46 235 59 79 14 135-45 221-34 93 12 164 87 176 182 12 92-49 151-147 151H247c-65 0-98-88-62-137Z" fill="#eaf3fb"/>
  <path d="M250 210c43-37 116-38 153-4 41 39 23 113-39 159-67 50-153 48-188 1-36-49 17-108 74-156Z" fill="none" stroke="#9cc1f4" stroke-width="7" opacity=".75"/>
  <path d="M202 237c54-17 147 3 202 48 58 47 63 111 11 139-55 29-150 8-205-45-53-51-59-126-8-142Z" fill="none" stroke="#9cc1f4" stroke-width="7" opacity=".6"/>
  <path d="M249 169c63 4 118 64 121 134 4 72-49 128-113 119-64-8-112-75-107-146 4-69 42-111 99-107Z" fill="none" stroke="#9cc1f4" stroke-width="7" opacity=".55"/>
  <rect x="345" y="193" width="330" height="214" rx="10" fill="#5b91e6"/>
  <path d="M358 211h293l39 171H394L358 211Z" fill="#f4f8ff"/>
  <path d="M381 229h250l27 132H411L381 229Z" fill="#a9c8f5"/>
  <path d="M421 272h188l13 61H434l-13-61Z" fill="#dbeaff"/>
  <path d="M480 282c22 0 38 17 42 42h-75c-1-25 12-42 33-42Z" fill="#d9433f"/>
  <path d="M494 253c13 0 24 12 26 27 1 15-8 27-21 27s-25-12-26-27c-2-15 7-27 21-27Z" fill="#173866"/>
  <path d="M520 286l43-22" stroke="#d9433f" stroke-width="8" stroke-linecap="round"/>
  <path d="M549 261l30 12" stroke="#173866" stroke-width="5" stroke-linecap="round"/>
  <path d="M531 301l24 13" stroke="#ffffff" stroke-width="4" stroke-linecap="round"/>
  <rect x="566" y="263" width="64" height="11" rx="3" fill="#dbeaff"/>
  <rect x="570" y="282" width="73" height="10" rx="3" fill="#dbeaff"/>
  <rect x="584" y="312" width="41" height="31" rx="4" fill="#dbeaff"/>
  <rect x="634" y="312" width="41" height="31" rx="4" fill="#dbeaff"/>
  <circle cx="407" cy="352" r="14" fill="#5b91e6"/>
  <path d="M403 344l12 8-12 8v-16Z" fill="#ffffff"/>
  <rect x="431" y="348" width="161" height="8" rx="4" fill="#7fb0f1"/>
  <rect x="430" y="436" width="216" height="30" rx="8" fill="#ffffff"/>
  <path d="M372 402h279l34 83H405l-33-83Z" fill="#ec8e2f"/>
  <path d="M405 485h301" stroke="#f8b35f" stroke-width="16" stroke-linecap="round"/>
  <circle cx="579" cy="424" r="11" fill="#da6e1f"/>
  <rect x="134" y="500" width="226" height="40" rx="8" fill="#79d0cb"/>
  <rect x="109" y="466" width="156" height="34" rx="6" fill="#fff5dc"/>
  <path d="M144 466h37v53l-18-10-19 10v-53Z" fill="#ef8f31"/>
  <path d="M229 455c-33-8-45-31-37-68 7-34 43-55 76-39 27 13 39 44 27 74-12 29-37 40-66 33Z" fill="#173866"/>
  <path d="M217 385c-20 38-37 65-76 82l33 22c35-18 63-42 84-82l-41-22Z" fill="#d9433f"/>
  <path d="M237 375c24 25 45 48 72 64l19-32c-26-19-46-40-60-64l-31 32Z" fill="#d9433f"/>
  <path d="M206 475l93 25" stroke="#f79737" stroke-width="45" stroke-linecap="round"/>
  <path d="M221 527c31-25 61-25 92 0" stroke="#f79737" stroke-width="40" stroke-linecap="round"/>
  <rect x="153" y="377" width="55" height="72" rx="7" fill="#a94438"/>
  <path d="M166 396h31" stroke="#fff5dc" stroke-width="5" stroke-linecap="round"/>
  <path d="M726 522l156-1" stroke="#ef8f31" stroke-width="18" stroke-linecap="round"/>
  <path d="M794 352c-31 53-62 105-91 158" stroke="#258e9b" stroke-width="35" stroke-linecap="round"/>
  <path d="M772 351c4 64 3 119-14 166" stroke="#258e9b" stroke-width="35" stroke-linecap="round"/>
  <path d="M760 309c16 2 38 19 47 42 8 21 5 45-8 64l-68-27c8-52 14-81 29-79Z" fill="#f79737"/>
  <path d="M783 258c17-3 33 9 36 27 4 18-7 35-24 38-17 2-33-10-36-28-3-17 7-34 24-37Z" fill="#173866"/>
  <path d="M738 370l-46 9" stroke="#f79737" stroke-width="16" stroke-linecap="round"/>
  <path d="M673 348l25 50 35-4-25-50-35 4Z" fill="#f4f8ff" stroke="#7fb0f1" stroke-width="4"/>
  <rect x="780" y="440" width="158" height="67" rx="8" fill="#fff5dc"/>
  <rect x="810" y="391" width="150" height="50" rx="6" fill="#b64036"/>
  <path d="M874 441h31v32l-15-8-16 8v-32Z" fill="#d9433f"/>
  <path d="M873 372c18-36 60-37 79-4 18 31 1 73-35 88-38 16-75-18-44-84Z" fill="#ba4a45"/>
  <path d="M824 526c31-24 68-26 105-5" stroke="#153d74" stroke-width="40" stroke-linecap="round"/>
  <path d="M846 386c13-23 47-30 73-11 26 18 36 56 18 87l-90-8c-12-25-13-48-1-68Z" fill="#173866"/>
  <path d="M910 449l31 28" stroke="#f59b76" stroke-width="15" stroke-linecap="round"/>
  <path d="M845 442l-40 21" stroke="#f59b76" stroke-width="15" stroke-linecap="round"/>
  <rect x="926" y="422" width="46" height="34" rx="4" fill="#d9433f"/>
  <path d="M75 542h874" stroke="#142747" stroke-width="5" stroke-linecap="round"/>
</svg>
